<?xml version="1.0" encoding="utf-8"?>
<!-- Generator: Adobe Illustrator 16.0.0, SVG Export Plug-In . SVG Version: 6.00 Build 0)  -->
<!DOCTYPE svg PUBLIC "-//W3C//DTD SVG 1.1//EN" "http://www.w3.org/Graphics/SVG/1.1/DTD/svg11.dtd">
<svg version="1.1" id="Ebene_1" xmlns="http://www.w3.org/2000/svg" xmlns:xlink="http://www.w3.org/1999/xlink" x="0px" y="0px"
	 width="2028.203px" height="1255.859px" viewBox="0 0 2028.203 1255.859" style="enable-background:new 0 0 2028.203 1255.859;"
	 xml:space="preserve">
	   <defs>
    <pattern id="star" viewBox="0,0,10,10" width="10%" height="10%">
      <polygon points="0,0 2,5 0,10 5,8 10,10 8,5 10,0 5,2"/>
    </pattern>
  </defs>
<style type="text/css">
<![CDATA[
	.poligon{fill:#FCBD0F;}
]]>
</style>
<polygon class="st0" points="-941.972,1023.859 -1104.181,1023.859 -1903.181,233.859 -1740.972,233.859 "/>
<polygon class="st0" points="-779.972,1023.859 -942.181,1023.859 -1741.181,233.859 -1578.972,233.859 "/>
<polygon class="st0" points="-619.305,1023.859 -781.514,1023.859 -1580.514,233.859 -1418.305,233.859 "/>
<polygon class="st0" points="-456.972,1023.859 -619.181,1023.859 -1418.181,233.859 -1255.972,233.859 "/>
<g>
	<polygon class="poligon" points="1112.034,1026.859 312.96,229.859 959.96,229.859 1759.243,1026.859 	"/>
</g>
</svg>
