<?xml version="1.0" encoding="utf-8"?>
<!-- Generator: Adobe Illustrator 16.0.0, SVG Export Plug-In . SVG Version: 6.00 Build 0)  -->
<!DOCTYPE svg PUBLIC "-//W3C//DTD SVG 1.1//EN" "http://www.w3.org/Graphics/SVG/1.1/DTD/svg11.dtd">
<svg version="1.1" id="Ebene_1_Kopie" xmlns="http://www.w3.org/2000/svg" xmlns:xlink="http://www.w3.org/1999/xlink" x="0px"
	 y="0px" width="960px" height="560px" viewBox="0 0 960 560" style="enable-background:new 0 0 960 560;" xml:space="preserve">
<g>
	<path d="M286.189,219.442v-14.156h-14.391v14.156h-6.914v-33.023h6.914v13.148h14.391v-13.148h6.914v33.023H286.189z"/>
	<path d="M299.689,189.512v-4.852h6.586v4.852H299.689z M299.689,219.442v-25.359h6.586v25.359H299.689z"/>
	<path d="M319.798,217.895c0,1.875-0.199,3.531-0.598,4.969s-1.043,2.773-1.934,4.008h-4.336c0.922-1.109,1.672-2.328,2.25-3.656
		s0.867-2.586,0.867-3.773h-3.023v-7.148h6.773V217.895z"/>
	<path d="M339.697,189.512v-4.852h6.586v4.852H339.697z M339.697,219.442v-25.359h6.586v25.359H339.697z"/>
	<path d="M351.72,191.715v-0.727l5.906-6.75h6.047v1.008l-7.969,6.469H351.72z"/>
	<path d="M383.947,219.442v-14.227c0-4.453-1.281-6.68-3.844-6.68c-1.328,0-2.41,0.68-3.246,2.039s-1.254,3.117-1.254,5.273v13.594
		h-6.586v-19.688c0-1.359-0.02-2.473-0.059-3.34s-0.082-1.645-0.129-2.332h6.281c0.047,0.297,0.109,1.09,0.188,2.379
		s0.117,2.176,0.117,2.66h0.094c0.813-1.938,1.824-3.344,3.035-4.219s2.66-1.313,4.348-1.313c3.875,0,6.227,1.844,7.055,5.531h0.141
		c0.859-1.969,1.891-3.383,3.094-4.242s2.734-1.289,4.593-1.289c2.469,0,4.352,0.84,5.648,2.52s1.945,4.09,1.945,7.23v16.102h-6.539
		v-14.227c0-4.453-1.281-6.68-3.843-6.68c-1.281,0-2.332,0.621-3.152,1.863s-1.27,2.957-1.348,5.145v13.898H383.947z"/>
	<path d="M451.821,209.926c0,3.234-1.199,5.707-3.598,7.418s-5.918,2.566-10.559,2.566c-4.234,0-7.555-0.75-9.961-2.25
		s-3.953-3.773-4.641-6.82l6.68-1.102c0.453,1.75,1.336,3.02,2.648,3.809s3.133,1.184,5.461,1.184c4.828,0,7.242-1.469,7.242-4.406
		c0-0.938-0.277-1.711-0.832-2.32s-1.336-1.117-2.344-1.523s-2.941-0.898-5.801-1.477c-2.469-0.578-4.188-1.043-5.156-1.395
		s-1.844-0.766-2.625-1.242s-1.445-1.051-1.992-1.723s-0.973-1.461-1.277-2.367s-0.457-1.945-0.457-3.117
		c0-2.984,1.121-5.27,3.363-6.855s5.504-2.379,9.785-2.379c4.094,0,7.168,0.641,9.223,1.922s3.379,3.398,3.973,6.352l-6.703,0.914
		c-0.344-1.422-1.043-2.492-2.098-3.211s-2.566-1.078-4.535-1.078c-4.188,0-6.281,1.313-6.281,3.938
		c0,0.859,0.223,1.563,0.668,2.109s1.105,1.012,1.98,1.395s2.648,0.863,5.32,1.441c3.172,0.672,5.441,1.293,6.809,1.863
		s2.449,1.234,3.246,1.992s1.406,1.664,1.828,2.719S451.821,208.551,451.821,209.926z"/>
	<path d="M467.431,219.911c-3.813,0-6.742-1.129-8.789-3.387s-3.07-5.551-3.07-9.879c0-4.188,1.039-7.406,3.117-9.656
		s5.023-3.375,8.836-3.375c3.641,0,6.422,1.207,8.344,3.621s2.883,5.949,2.883,10.605v0.188h-16.266c0,2.469,0.457,4.332,1.371,5.59
		s2.215,1.887,3.902,1.887c2.328,0,3.797-1.008,4.406-3.023l6.211,0.539C476.579,217.614,472.931,219.911,467.431,219.911z
		 M467.431,197.762c-1.547,0-2.738,0.539-3.574,1.617s-1.277,2.586-1.324,4.523h9.844c-0.125-2.047-0.617-3.582-1.477-4.605
		S468.884,197.762,467.431,197.762z"/>
	<path d="M483.743,219.442v-19.406c0-1.391-0.02-2.551-0.059-3.48s-0.082-1.754-0.129-2.473h6.281
		c0.047,0.281,0.109,1.137,0.188,2.566s0.117,2.379,0.117,2.848h0.094c0.641-1.781,1.211-3.035,1.711-3.762s1.094-1.266,1.781-1.617
		s1.547-0.527,2.578-0.527c0.844,0,1.523,0.117,2.039,0.352v5.508c-1.063-0.234-2-0.352-2.813-0.352
		c-1.641,0-2.918,0.664-3.832,1.992s-1.371,3.297-1.371,5.906v12.445H483.743z"/>
	<path d="M513.04,229.614c-3.094,0-5.582-0.59-7.465-1.77s-3.043-2.863-3.48-5.051l6.586-0.773c0.234,1.016,0.738,1.813,1.512,2.391
		s1.785,0.867,3.035,0.867c1.828,0,3.164-0.563,4.008-1.688s1.266-2.797,1.266-5.016v-1.336l0.047-2.508h-0.047
		c-1.453,3.109-4.172,4.664-8.156,4.664c-2.953,0-5.242-1.109-6.867-3.328s-2.438-5.391-2.438-9.516
		c0-4.141,0.836-7.336,2.508-9.586s4.102-3.375,7.289-3.375c3.688,0,6.242,1.523,7.664,4.57h0.117c0-0.547,0.035-1.289,0.105-2.227
		s0.145-1.555,0.223-1.852h6.234c-0.094,1.688-0.141,3.641-0.141,5.859v18.727c0,3.609-1.023,6.336-3.07,8.18
		S516.946,229.614,513.04,229.614z M518.548,206.411c0-2.609-0.465-4.645-1.395-6.105s-2.254-2.191-3.973-2.191
		c-3.516,0-5.273,2.813-5.273,8.438c0,5.516,1.742,8.273,5.227,8.273c1.75,0,3.09-0.73,4.02-2.191S518.548,209.098,518.548,206.411z
		"/>
	<path d="M531.743,189.512v-4.852h6.586v4.852H531.743z M531.743,219.442v-25.359h6.586v25.359H531.743z"/>
	<path d="M569.173,206.739c0,4.109-1.141,7.332-3.422,9.668s-5.438,3.504-9.469,3.504c-3.953,0-7.055-1.172-9.305-3.516
		s-3.375-5.563-3.375-9.656c0-4.078,1.125-7.285,3.375-9.621s5.398-3.504,9.445-3.504c4.141,0,7.301,1.129,9.48,3.387
		S569.173,202.504,569.173,206.739z M562.282,206.739c0-3.016-0.492-5.203-1.477-6.563s-2.414-2.039-4.289-2.039
		c-4,0-6,2.867-6,8.602c0,2.828,0.488,4.98,1.465,6.457s2.387,2.215,4.23,2.215C560.259,215.411,562.282,212.52,562.282,206.739z"/>
	<path d="M581.173,217.895c0,1.875-0.199,3.531-0.598,4.969s-1.043,2.773-1.934,4.008h-4.336c0.922-1.109,1.672-2.328,2.25-3.656
		s0.867-2.586,0.867-3.773h-3.023v-7.148h6.773V217.895z"/>
	<path d="M273.955,277.51c-3.422,0-6.051-0.742-7.887-2.227s-3.059-3.883-3.668-7.195l6.867-1.008
		c0.281,1.703,0.805,2.965,1.57,3.785s1.82,1.23,3.164,1.23c1.375,0,2.418-0.461,3.129-1.383s1.066-2.242,1.066-3.961v-17.32h-6.586
		v-5.414h13.477v22.57c0,3.438-0.977,6.117-2.93,8.039S277.47,277.51,273.955,277.51z"/>
	<path d="M297.931,251.682v14.227c0,4.453,1.5,6.68,4.5,6.68c1.594,0,2.879-0.684,3.855-2.051s1.465-3.121,1.465-5.262v-13.594
		h6.586v19.688c0,2.156,0.063,4.047,0.188,5.672h-6.281c-0.188-2.25-0.281-3.93-0.281-5.039h-0.117
		c-0.875,1.922-1.988,3.32-3.34,4.195s-2.957,1.313-4.816,1.313c-2.688,0-4.75-0.824-6.188-2.473s-2.156-4.066-2.156-7.254v-16.102
		H297.931z"/>
	<path d="M337.47,277.042v-14.227c0-4.453-1.508-6.68-4.523-6.68c-1.594,0-2.879,0.684-3.855,2.051s-1.465,3.121-1.465,5.262v13.594
		h-6.586v-19.688c0-1.359-0.02-2.473-0.059-3.34s-0.082-1.645-0.129-2.332h6.281c0.047,0.297,0.109,1.09,0.188,2.379
		s0.117,2.176,0.117,2.66h0.094c0.891-1.938,2.008-3.344,3.352-4.219s2.945-1.313,4.805-1.313c2.688,0,4.75,0.828,6.188,2.484
		s2.156,4.078,2.156,7.266v16.102H337.47z"/>
	<path d="M350.361,247.112v-4.851h6.586v4.851H350.361z M350.361,277.042v-25.359h6.586v25.359H350.361z"/>
	<path d="M387.791,264.338c0,4.109-1.141,7.332-3.422,9.668s-5.438,3.504-9.469,3.504c-3.953,0-7.055-1.172-9.305-3.516
		s-3.375-5.563-3.375-9.656c0-4.078,1.125-7.285,3.375-9.621s5.398-3.504,9.445-3.504c4.141,0,7.301,1.129,9.48,3.387
		S387.791,260.104,387.791,264.338z M380.9,264.338c0-3.016-0.492-5.203-1.477-6.563s-2.414-2.039-4.289-2.039c-4,0-6,2.867-6,8.602
		c0,2.828,0.488,4.98,1.465,6.457s2.387,2.215,4.23,2.215C378.876,273.01,380.9,270.12,380.9,264.338z"/>
	<path d="M393.017,277.042v-19.406c0-1.391-0.02-2.551-0.059-3.48s-0.082-1.754-0.129-2.473h6.281
		c0.047,0.281,0.109,1.137,0.188,2.566s0.117,2.379,0.117,2.848h0.094c0.641-1.781,1.211-3.035,1.711-3.762s1.094-1.266,1.781-1.617
		s1.547-0.527,2.578-0.527c0.844,0,1.523,0.117,2.039,0.352v5.508c-1.063-0.234-2-0.352-2.813-0.352
		c-1.641,0-2.918,0.664-3.832,1.992s-1.371,3.297-1.371,5.906v12.445H393.017z"/>
	<path d="M458.407,277.042h-8.203l-4.477-19.102c-0.547-2.25-1.008-4.602-1.383-7.055c-0.375,2.047-0.68,3.605-0.914,4.676
		s-1.898,8.23-4.992,21.48h-8.203l-8.508-33.023h7.008l4.781,21.328l1.078,5.156c0.438-2.172,0.863-4.246,1.277-6.223
		s1.973-8.73,4.676-20.261h7.734l4.172,17.578c0.328,1.313,0.883,4.281,1.664,8.906l0.586-2.719l1.242-5.391l3.984-18.375h7.008
		L458.407,277.042z"/>
	<path d="M479.853,277.51c-3.813,0-6.742-1.129-8.789-3.387s-3.07-5.551-3.07-9.879c0-4.188,1.039-7.406,3.117-9.656
		s5.023-3.375,8.836-3.375c3.641,0,6.422,1.207,8.344,3.621s2.883,5.949,2.883,10.605v0.188h-16.266c0,2.469,0.457,4.332,1.371,5.59
		s2.215,1.887,3.902,1.887c2.328,0,3.797-1.008,4.406-3.023l6.211,0.539C489.001,275.213,485.353,277.51,479.853,277.51z
		 M479.853,255.362c-1.547,0-2.738,0.539-3.574,1.617s-1.277,2.586-1.324,4.523h9.844c-0.125-2.047-0.617-3.582-1.477-4.605
		S481.306,255.362,479.853,255.362z"/>
	<path d="M520.165,264.268c0,4.188-0.84,7.441-2.52,9.762s-4.082,3.48-7.207,3.48c-1.797,0-3.352-0.391-4.664-1.172
		s-2.32-1.906-3.023-3.375h-0.047c0,0.547-0.035,1.297-0.105,2.25s-0.145,1.563-0.223,1.828h-6.398
		c0.125-1.453,0.188-3.383,0.188-5.789v-28.992h6.586v9.703l-0.094,4.125h0.094c1.484-3.25,4.188-4.875,8.109-4.875
		c3,0,5.301,1.137,6.902,3.41S520.165,260.112,520.165,264.268z M513.298,264.268c0-2.875-0.422-5.008-1.266-6.398
		s-2.148-2.086-3.914-2.086c-1.781,0-3.137,0.746-4.066,2.238s-1.395,3.645-1.395,6.457c0,2.688,0.457,4.781,1.371,6.281
		s2.262,2.25,4.043,2.25C511.556,273.01,513.298,270.096,513.298,264.268z"/>
	<path d="M568.118,260.284c0,3.406-0.668,6.379-2.004,8.918s-3.227,4.48-5.672,5.824s-5.246,2.016-8.402,2.016h-13.359v-33.023
		h11.953c5.563,0,9.867,1.402,12.914,4.207C566.595,251.03,568.118,255.049,568.118,260.284z M561.157,260.284
		c0-3.547-0.922-6.254-2.766-8.121s-4.477-2.801-7.898-2.801h-4.898v22.336h5.859c2.969,0,5.328-1.023,7.078-3.07
		S561.157,263.799,561.157,260.284z"/>
	<path d="M583.868,277.51c-3.813,0-6.742-1.129-8.789-3.387s-3.07-5.551-3.07-9.879c0-4.188,1.039-7.406,3.117-9.656
		s5.023-3.375,8.836-3.375c3.641,0,6.422,1.207,8.344,3.621s2.883,5.949,2.883,10.605v0.188h-16.266c0,2.469,0.457,4.332,1.371,5.59
		s2.215,1.887,3.902,1.887c2.328,0,3.797-1.008,4.406-3.023l6.211,0.539C593.017,275.213,589.368,277.51,583.868,277.51z
		 M583.868,255.362c-1.547,0-2.738,0.539-3.574,1.617s-1.277,2.586-1.324,4.523h9.844c-0.125-2.047-0.617-3.582-1.477-4.605
		S585.321,255.362,583.868,255.362z"/>
	<path d="M613.962,277.042h-7.875l-9.07-25.359h6.961l4.43,14.18c0.234,0.781,0.789,2.734,1.664,5.859
		c0.156-0.641,0.477-1.766,0.961-3.375s2.281-7.164,5.391-16.664h6.891L613.962,277.042z"/>
	<path d="M637.259,277.51c-3.813,0-6.742-1.129-8.789-3.387s-3.07-5.551-3.07-9.879c0-4.188,1.039-7.406,3.117-9.656
		s5.023-3.375,8.836-3.375c3.641,0,6.422,1.207,8.344,3.621s2.883,5.949,2.883,10.605v0.188h-16.266c0,2.469,0.457,4.332,1.371,5.59
		s2.215,1.887,3.902,1.887c2.328,0,3.797-1.008,4.406-3.023l6.211,0.539C646.407,275.213,642.759,277.51,637.259,277.51z
		 M637.259,255.362c-1.547,0-2.738,0.539-3.574,1.617s-1.277,2.586-1.324,4.523h9.844c-0.125-2.047-0.617-3.582-1.477-4.605
		S638.712,255.362,637.259,255.362z"/>
	<path d="M653.571,277.042v-34.781h6.586v34.781H653.571z"/>
	<path d="M691.001,264.338c0,4.109-1.141,7.332-3.422,9.668s-5.438,3.504-9.469,3.504c-3.953,0-7.055-1.172-9.305-3.516
		s-3.375-5.563-3.375-9.656c0-4.078,1.125-7.285,3.375-9.621s5.398-3.504,9.445-3.504c4.141,0,7.301,1.129,9.48,3.387
		S691.001,260.104,691.001,264.338z M684.11,264.338c0-3.016-0.492-5.203-1.477-6.563s-2.414-2.039-4.289-2.039
		c-4,0-6,2.867-6,8.602c0,2.828,0.488,4.98,1.465,6.457s2.387,2.215,4.23,2.215C682.087,273.01,684.11,270.12,684.11,264.338z"/>
	<path d="M720.228,264.245c0,4.234-0.848,7.504-2.543,9.809s-4.09,3.457-7.184,3.457c-1.781,0-3.332-0.387-4.652-1.16
		s-2.332-1.887-3.035-3.34h-0.141c0.094,0.469,0.141,1.891,0.141,4.266v9.726h-6.586v-29.484c0-2.391-0.063-4.336-0.188-5.836h6.398
		c0.078,0.281,0.145,0.836,0.199,1.664s0.082,1.648,0.082,2.461h0.094c1.484-3.109,4.188-4.664,8.109-4.664
		c2.953,0,5.242,1.137,6.867,3.41S720.228,260.057,720.228,264.245z M713.36,264.245c0-5.688-1.742-8.531-5.227-8.531
		c-1.75,0-3.09,0.766-4.02,2.297s-1.395,3.672-1.395,6.422c0,2.734,0.465,4.848,1.395,6.34s2.254,2.238,3.973,2.238
		C711.603,273.01,713.36,270.088,713.36,264.245z"/>
	<path d="M735.931,277.51c-3.813,0-6.742-1.129-8.789-3.387s-3.07-5.551-3.07-9.879c0-4.188,1.039-7.406,3.117-9.656
		s5.023-3.375,8.836-3.375c3.641,0,6.422,1.207,8.344,3.621s2.883,5.949,2.883,10.605v0.188h-16.266c0,2.469,0.457,4.332,1.371,5.59
		s2.215,1.887,3.902,1.887c2.328,0,3.797-1.008,4.406-3.023l6.211,0.539C745.079,275.213,741.431,277.51,735.931,277.51z
		 M735.931,255.362c-1.547,0-2.738,0.539-3.574,1.617s-1.277,2.586-1.324,4.523h9.844c-0.125-2.047-0.617-3.582-1.477-4.605
		S737.384,255.362,735.931,255.362z"/>
	<path d="M752.243,277.042v-19.406c0-1.391-0.02-2.551-0.059-3.48s-0.082-1.754-0.129-2.473h6.281
		c0.047,0.281,0.109,1.137,0.188,2.566s0.117,2.379,0.117,2.848h0.094c0.641-1.781,1.211-3.035,1.711-3.762s1.094-1.266,1.781-1.617
		s1.547-0.527,2.578-0.527c0.844,0,1.523,0.117,2.039,0.352v5.508c-1.063-0.234-2-0.352-2.813-0.352
		c-1.641,0-2.918,0.664-3.832,1.992s-1.371,3.297-1.371,5.906v12.445H752.243z"/>
	<path d="M775.048,275.495c0,1.875-0.199,3.531-0.598,4.969c-0.398,1.437-1.043,2.773-1.934,4.007h-4.336
		c0.922-1.109,1.672-2.328,2.25-3.656c0.578-1.328,0.867-2.586,0.867-3.773h-3.023v-7.148h6.773V275.495z"/>
	<path d="M289.025,321.867c0,4.188-0.84,7.441-2.52,9.762s-4.082,3.48-7.207,3.48c-1.797,0-3.352-0.391-4.664-1.172
		s-2.32-1.906-3.023-3.375h-0.047c0,0.547-0.035,1.297-0.105,2.25s-0.145,1.563-0.223,1.828h-6.398
		c0.125-1.453,0.188-3.383,0.188-5.789v-28.992h6.586v9.703l-0.094,4.125h0.094c1.484-3.25,4.188-4.875,8.109-4.875
		c3,0,5.301,1.137,6.902,3.41S289.025,317.711,289.025,321.867z M282.158,321.867c0-2.875-0.422-5.008-1.266-6.398
		s-2.148-2.086-3.914-2.086c-1.781,0-3.137,0.746-4.066,2.238s-1.395,3.645-1.395,6.457c0,2.688,0.457,4.781,1.371,6.281
		s2.262,2.25,4.043,2.25C280.416,330.609,282.158,327.695,282.158,321.867z"/>
	<path d="M300.205,335.109c-2.453,0-4.367-0.668-5.742-2.004s-2.063-3.215-2.063-5.637c0-2.625,0.855-4.625,2.566-6
		s4.191-2.078,7.441-2.109l5.461-0.094v-1.289c0-1.656-0.289-2.887-0.867-3.691s-1.523-1.207-2.836-1.207
		c-1.219,0-2.113,0.277-2.684,0.832s-0.926,1.473-1.066,2.754l-6.867-0.328c0.422-2.469,1.551-4.34,3.387-5.613
		s4.34-1.91,7.512-1.91c3.203,0,5.672,0.789,7.406,2.367s2.602,3.82,2.602,6.727v9.234c0,1.422,0.16,2.402,0.48,2.941
		s0.855,0.809,1.605,0.809c0.5,0,0.984-0.047,1.453-0.141v3.563c-0.391,0.094-0.742,0.18-1.055,0.258s-0.625,0.141-0.938,0.188
		s-0.645,0.086-0.996,0.117s-0.762,0.047-1.23,0.047c-1.656,0-2.879-0.406-3.668-1.219s-1.262-2.008-1.418-3.586h-0.141
		C306.705,333.445,303.923,335.109,300.205,335.109z M307.869,322.898l-3.375,0.047c-1.531,0.063-2.617,0.23-3.258,0.504
		s-1.129,0.691-1.465,1.254s-0.504,1.313-0.504,2.25c0,1.203,0.277,2.098,0.832,2.684s1.293,0.879,2.215,0.879
		c1.031,0,1.973-0.281,2.824-0.844s1.52-1.34,2.004-2.332s0.727-2.043,0.727-3.152V322.898z"/>
	<path d="M342.416,327.234c0,2.453-1.004,4.379-3.012,5.777s-4.785,2.098-8.332,2.098c-3.484,0-6.152-0.551-8.004-1.652
		s-3.082-2.816-3.691-5.145l5.789-0.867c0.328,1.203,0.895,2.055,1.699,2.555s2.207,0.75,4.207,0.75
		c1.844,0,3.188-0.234,4.031-0.703s1.266-1.203,1.266-2.203c0-0.813-0.34-1.457-1.02-1.934s-1.832-0.879-3.457-1.207
		c-3.719-0.734-6.227-1.418-7.523-2.051s-2.285-1.453-2.965-2.461s-1.02-2.246-1.02-3.715c0-2.422,0.934-4.309,2.801-5.66
		s4.512-2.027,7.934-2.027c3.016,0,5.441,0.586,7.277,1.758s2.98,2.867,3.434,5.086l-5.836,0.609
		c-0.188-1.031-0.648-1.801-1.383-2.309s-1.898-0.762-3.492-0.762c-1.563,0-2.734,0.199-3.516,0.598s-1.172,1.066-1.172,2.004
		c0,0.734,0.301,1.316,0.902,1.746s1.613,0.785,3.035,1.066c1.984,0.406,3.746,0.824,5.285,1.254s2.773,0.941,3.703,1.535
		s1.672,1.355,2.227,2.285S342.416,325.781,342.416,327.234z"/>
	<path d="M358.119,335.109c-3.813,0-6.742-1.129-8.789-3.387s-3.07-5.551-3.07-9.879c0-4.188,1.039-7.406,3.117-9.656
		s5.023-3.375,8.836-3.375c3.641,0,6.422,1.207,8.344,3.621s2.883,5.949,2.883,10.605v0.188h-16.266c0,2.469,0.457,4.332,1.371,5.59
		s2.215,1.887,3.902,1.887c2.328,0,3.797-1.008,4.406-3.023l6.211,0.539C367.267,332.813,363.619,335.109,358.119,335.109z
		 M358.119,312.961c-1.547,0-2.738,0.539-3.574,1.617s-1.277,2.586-1.324,4.523h9.844c-0.125-2.047-0.617-3.582-1.477-4.605
		S359.572,312.961,358.119,312.961z"/>
	<path d="M390.861,334.641c-0.063-0.234-0.137-0.824-0.223-1.77s-0.129-1.73-0.129-2.355h-0.094
		c-1.422,3.063-4.125,4.594-8.109,4.594c-2.953,0-5.234-1.152-6.844-3.457s-2.414-5.527-2.414-9.668
		c0-4.203,0.848-7.449,2.543-9.738s4.098-3.434,7.207-3.434c1.797,0,3.348,0.375,4.652,1.125s2.309,1.867,3.012,3.352h0.047
		l-0.047-4.172v-9.258h6.586v29.25c0,1.563,0.063,3.406,0.188,5.531H390.861z M390.556,321.82c0-2.734-0.457-4.84-1.371-6.316
		s-2.262-2.215-4.043-2.215c-1.766,0-3.078,0.715-3.938,2.145s-1.289,3.613-1.289,6.551c0,5.75,1.727,8.625,5.18,8.625
		c1.734,0,3.078-0.762,4.031-2.285S390.556,324.633,390.556,321.82z"/>
	<path d="M417.087,304.711v-4.852h6.586v4.852H417.087z M417.087,334.641v-25.359h6.586v25.359H417.087z"/>
	<path d="M446.853,334.641v-14.227c0-4.453-1.508-6.68-4.523-6.68c-1.594,0-2.879,0.684-3.855,2.051s-1.465,3.121-1.465,5.262
		v13.594h-6.586v-19.688c0-1.359-0.02-2.473-0.059-3.34s-0.082-1.645-0.129-2.332h6.281c0.047,0.297,0.109,1.09,0.188,2.379
		s0.117,2.176,0.117,2.66h0.094c0.891-1.938,2.008-3.344,3.352-4.219s2.945-1.313,4.805-1.313c2.688,0,4.75,0.828,6.188,2.484
		s2.156,4.078,2.156,7.266v16.102H446.853z"/>
	<path d="M502.212,325.219c0,3-1.125,5.32-3.375,6.961s-5.375,2.461-9.375,2.461h-16.523v-33.023h15.117
		c4.031,0,7.082,0.699,9.152,2.098s3.105,3.465,3.105,6.199c0,1.875-0.52,3.457-1.559,4.746s-2.621,2.16-4.746,2.613
		c2.672,0.313,4.707,1.152,6.105,2.52S502.212,322.969,502.212,325.219z M493.353,310.852c0-1.484-0.473-2.539-1.418-3.164
		s-2.348-0.938-4.207-0.938h-7.875v8.18h7.922c1.953,0,3.371-0.34,4.254-1.02S493.353,312.211,493.353,310.852z M495.274,324.68
		c0-3.094-2.219-4.641-6.656-4.641h-8.766v9.469h9.023c2.219,0,3.84-0.402,4.863-1.207S495.274,326.289,495.274,324.68z"/>
	<path d="M518.126,335.109c-3.813,0-6.742-1.129-8.789-3.387s-3.07-5.551-3.07-9.879c0-4.188,1.039-7.406,3.117-9.656
		s5.023-3.375,8.836-3.375c3.641,0,6.422,1.207,8.344,3.621s2.883,5.949,2.883,10.605v0.188h-16.266c0,2.469,0.457,4.332,1.371,5.59
		s2.215,1.887,3.902,1.887c2.328,0,3.797-1.008,4.406-3.023l6.211,0.539C527.274,332.813,523.626,335.109,518.126,335.109z
		 M518.126,312.961c-1.547,0-2.738,0.539-3.574,1.617s-1.277,2.586-1.324,4.523h9.844c-0.125-2.047-0.617-3.582-1.477-4.605
		S519.579,312.961,518.126,312.961z"/>
	<path d="M534.438,334.641v-19.406c0-1.391-0.02-2.551-0.059-3.48s-0.082-1.754-0.129-2.473h6.281
		c0.047,0.281,0.109,1.137,0.188,2.566s0.117,2.379,0.117,2.848h0.094c0.641-1.781,1.211-3.035,1.711-3.762s1.094-1.266,1.781-1.617
		s1.547-0.527,2.578-0.527c0.844,0,1.523,0.117,2.039,0.352v5.508c-1.063-0.234-2-0.352-2.813-0.352
		c-1.641,0-2.918,0.664-3.832,1.992s-1.371,3.297-1.371,5.906v12.445H534.438z"/>
	<path d="M553.118,334.641v-34.781h6.586v34.781H553.118z"/>
	<path d="M566.454,304.711v-4.852h6.586v4.852H566.454z M566.454,334.641v-25.359h6.586v25.359H566.454z"/>
	<path d="M596.22,334.641v-14.227c0-4.453-1.508-6.68-4.523-6.68c-1.594,0-2.879,0.684-3.855,2.051s-1.465,3.121-1.465,5.262v13.594
		h-6.586v-19.688c0-1.359-0.02-2.473-0.059-3.34s-0.082-1.645-0.129-2.332h6.281c0.047,0.297,0.109,1.09,0.188,2.379
		s0.117,2.176,0.117,2.66h0.094c0.891-1.938,2.008-3.344,3.352-4.219s2.945-1.313,4.805-1.313c2.688,0,4.75,0.828,6.188,2.484
		s2.156,4.078,2.156,7.266v16.102H596.22z"/>
</g>
<g>
</g>
<g>
</g>
<g>
</g>
<g>
</g>
<g>
</g>
<g>
</g>
<g>
</g>
<g>
</g>
<g>
</g>
<g>
</g>
<g>
</g>
<g>
</g>
<g>
</g>
<g>
</g>
<g>
</g>
</svg>
